<?xml version="1.0" encoding="utf-8"?>
<!DOCTYPE svg PUBLIC "-//W3C//DTD SVG 1.1//EN" "http://www.w3.org/Graphics/SVG/1.1/DTD/svg11.dtd">
<svg aria-hidden="true" focusable="false" data-prefix="fab" data-icon="webpack" class="svg-inline--fa fa-jira fa-w-16" role="img" version="1.1" xmlns="http://www.w3.org/2000/svg" xmlns:xlink="http://www.w3.org/1999/xlink" x="0px" y="0px" viewBox="0 0 1000 1000" enable-background="new 0 0 1000 1000" xml:space="preserve">
<g><g transform="translate(0.000000,512.000000) scale(0.100000,-0.100000)"><path fill="currentColor" d="M4083.2,4978.4c-23-24.9-158.9-333.2-298.7-685.6c-141.7-352.4-262.4-654.9-270-674.1c-13.4-28.7-30.6-13.4-101.5,84.3c-47.9,65.1-157,189.6-241.3,275.8c-383,384.9-806.2,612.8-1281.1,689.4c-394.5,65.1-453.9,38.3-499.8-220.2c-63.2-361.9-68.9-1028.4-17.2-1618.2l13.4-134l-78.5-44c-164.7-90-258.5-316-214.5-511.3c84.3-373.4,553.4-509.4,823.5-237.5c93.8,95.7,136,197.2,136,339c0,147.5-30.6,224.1-134,337l-80.4,86.2l84.3,111.1c105.3,137.9,375.3,517.1,519,729.6c124.5,180,136,247,61.3,319.8c-61.3,63.2-166.6,65.1-226,3.8c-23-24.9-162.8-218.3-310.2-429L1699,3015.5l-15.3,97.7c-19.2,124.5-3.8,1135.6,17.2,1202.6l17.2,49.8l149.4-26.8c204.9-34.5,457.7-132.1,656.9-256.6c231.7-143.6,572.6-482.6,729.6-725.8c158.9-247,199.2-287.3,279.6-287.3c42.1,0,78.5,15.3,107.2,46c23,23,159,337,300.7,693.2c143.6,356.2,266.2,654.9,271.9,662.6c7.7,7.7,130.2-176.2,275.8-406l260.4-419.4l-61.3-46c-32.6-26.8-86.2-93.8-116.8-149.4c-130.2-241.3-24.9-551.5,229.8-670.2c103.4-47.9,298.7-47.9,402.1,0c314.1,145.5,381.1,568.8,126.4,804.3l-72.8,68.9l260.5,415.6c141.7,229.8,266.2,409.8,271.9,402.1c7.7-7.7,132.1-310.2,277.7-670.2c143.6-361.9,279.6-674.1,300.7-695.2c23-21.1,67-36.4,105.3-36.4c78.5,0,118.7,40.2,277.7,287.3c214.5,333.2,622.4,699,940.3,842.6c143.6,65.1,350.4,128.3,494.1,149.4c99.6,15.3,109.2,13.4,120.6-23c21.1-59.4,32.6-1137.5,15.3-1231.4l-15.3-78.5l-268.1,384.9c-147.4,210.6-287.2,404.1-310.2,429c-59.4,61.3-164.7,59.4-226-3.8c-74.7-72.8-63.2-139.8,61.3-319.8c143.6-212.6,413.6-591.7,518.9-729.6L8166,2665l-80.4-86.2c-103.4-113-134.1-189.6-134.1-337c0-141.7,42.1-247,136-339c271.9-271.9,739.2-136,823.5,237.5c44.1,195.3-49.8,421.3-214.5,511.3l-78.5,44l11.5,134c55.5,622.4,49.8,1256.2-15.3,1627.8c-44,249-107.2,275.8-507.5,210.7c-561.1-91.9-1080.1-417.5-1493.7-938.4L6501.9,3590l-245.1,616.6c-302.6,758.3-306.4,767.9-365.8,794.7c-32.6,15.3-304.5,21.1-905.8,21.1h-859.8L4083.2,4978.4z M5477.3,4624.1c-168.5-279.6-467.3-750.7-474.9-750.7c-9.6,0-438.5,677.9-494.1,779.4l-24.9,44h519h519L5477.3,4624.1z M5079,3365.9c141.7-72.8,84.3-296.8-74.7-296.8c-168.5,0-218.3,222.1-68.9,302.6C4987.1,3400.4,5013.9,3400.4,5079,3365.9z M1683.7,2356.7c86.2-80.4,44-227.9-74.7-270c-95.8-34.5-224.1,90-199.2,189.6C1440.5,2396.9,1593.7,2441,1683.7,2356.7z M8524.1,2379.7c59.4-30.6,88.1-124.5,57.4-193.4c-26.8-67-126.4-120.6-183.8-99.6c-118.7,42.1-160.8,181.9-78.5,268.1C8363.2,2402.7,8460.9,2414.2,8524.1,2379.7z"/><path fill="currentColor" d="M2614.4,3184c-51.7-47.9-47.9-32.6-147.5-526.6C2352,2081,2338.6,2102,2800.2,2046.5c1198.8-149.4,2659.9-166.6,3944.9-47.9c467.3,42.1,744.9,80.4,800.5,111.1c80.4,44,80.4,101.5-7.7,543.9c-97.7,490.2-93.8,482.6-147.5,530.5c-86.2,82.3-262.4,13.4-262.4-101.5c0-38.3,88.1-505.6,124.5-656.9c11.5-49.8,1.9-51.7-553.4-103.4c-1114.5-101.5-2282.7-101.5-3393.4,0c-555.4,51.7-564.9,53.6-553.4,103.4c36.4,151.3,124.5,618.5,124.5,656.9C2876.8,3197.4,2700.6,3266.3,2614.4,3184z"/><path fill="currentColor" d="M2386.5,1726.7c-95.8-26.8-249-178.1-289.2-281.5c-28.7-76.6-34.5-149.4-34.5-520.9c0-413.6,1.9-434.7,44-520.9c49.8-101.5,170.4-214.5,264.3-249c53.6-19.2,68.9-42.1,134.1-204.9c394.5-1007.3,735.4-1646.9,1032.2-1947.5c367.7-369.6,936.4-532.4,1694.8-484.5c273.8,17.2,392.6,38.3,622.4,114.9c595.6,193.4,923,609,1443.9,1834.6C7392.3-316.6,7490-77.2,7518.7-2.6c45.9,114.9,63.2,137.9,114.9,157c93.8,34.5,212.6,145.5,262.3,247c44.1,88.1,46,107.2,46,522.8c0,501.7-13.4,557.3-155.1,689.4c-107.2,97.7-189.6,134.1-310.2,134.1c-95.8,0-153.2-38.3-181.9-118.7c-32.6-90,72.8-206.8,183.8-206.8c24.9,0,65.1-23,91.9-49.8c44.1-47.9,46-61.3,51.7-375.3c3.8-180,1.9-356.2-5.7-392.6c-15.3-88.1-88.1-158.9-160.9-158.9c-90,0-143.6-68.9-222.1-277.7C7112.7-150,6833.1-795.4,6701-1059.6c-430.9-859.8-800.5-1099.2-1698.6-1099.2c-898.1,0-1267.7,239.4-1698.6,1097.3c-132.1,266.2-415.6,919.2-532.4,1229.4c-78.5,208.7-132.1,277.7-222.1,277.7c-72.8,0-145.5,70.9-160.9,158.9c-7.7,36.4-9.6,212.6-5.7,392.6c5.7,314.1,7.7,327.5,51.7,375.3c26.8,26.8,67,49.8,91.9,49.8c158.9,0,239.4,170.4,134.1,283.4C2618.2,1751.6,2503.3,1761.2,2386.5,1726.7z"/><path fill="currentColor" d="M3577.6,1037.3c-65.1-76.6-63.2-141.7,5.7-210.6c47.9-47.9,70.9-55.5,160.9-55.5c97.7,0,105.3-3.8,128.3-57.5c28.7-70.9,70.9-95.8,158.9-95.8c68.9,0,147.5,63.2,147.5,120.6c0,26.8,19.2,32.6,95.7,32.6c105.3,0,199.2,38.3,218.3,86.2c24.9,67,11.5,145.5-36.4,191.5c-46,47.9-47.9,47.9-438.5,47.9h-390.7L3577.6,1037.3z"/><path fill="currentColor" d="M5550.1,1056.4c-49.8-40.2-67-124.5-38.3-199.2c19.2-47.9,113-86.2,218.3-86.2c80.4,0,95.8-5.7,95.8-34.5c0-55.5,80.4-118.7,151.3-118.7c84.2,0,126.4,24.9,155.1,95.8c23,53.6,30.6,57.5,128.3,57.5c90,0,113,7.7,160.8,55.5c69,68.9,70.9,134,5.8,210.6l-49.8,59.4h-388.7C5624.8,1096.6,5598,1094.7,5550.1,1056.4z"/><path fill="currentColor" d="M4849.2,401.5c-97.7-51.7-172.3-172.3-172.3-281.5c0-166.6,158.9-325.6,325.6-325.6c166.6,0,325.5,158.9,325.5,325.6c0,109.2-74.7,229.8-172.3,281.5C5050.3,457,4954.5,457,4849.2,401.5z"/><path fill="currentColor" d="M4111.9-554.1c-109.2-61.3-109.2-174.3,0-392.6c84.3-170.4,271.9-371.5,423.2-450c277.7-147.5,656.8-147.5,934.5,0c149.4,78.5,338.9,279.6,421.3,446.2c113,227.9,111.1,346.6-1.9,398.3C5823.9-521.5,4165.5-523.4,4111.9-554.1z M5557.8-877.7c0-11.5-46-65.1-101.5-120.7c-128.3-128.3-266.2-183.8-453.9-183.8s-325.6,55.5-453.9,183.8c-55.5,55.5-101.5,109.2-101.5,120.7c0,15.3,174.3,21.1,555.4,21.1C5383.5-856.7,5557.8-862.4,5557.8-877.7z"/><path fill="currentColor" d="M2735-2191.4c-287.3-358.1-643.4-986.2-643.4-1139.4c0-90,67-168.5,145.5-168.5c158.9,0,721.9,193.4,1068.6,367.7c61.3,30.6,113,53.6,116.8,49.8c1.9-3.8-17.2-122.5-44-264.3c-38.3-214.5-47.9-321.7-49.8-637.7c-1.9-377.3-1.9-381.1,44-417.5c67-53.6,153.2-46,262.4,24.9c118.7,78.5,538.1,496,693.2,691.3c114.9,145.5,118.7,147.5,130.2,95.7c99.6-463.4,342.8-1085.8,451.9-1162.4c55.5-38.3,128.3-38.3,183.8,0c109.2,76.6,344.7,681.8,451.9,1162.4c11.5,51.7,15.3,49.8,130.2-95.7c155.1-195.3,574.5-612.8,693.2-691.3c136-88.1,239.4-82.3,289.2,17.2c59.4,113,26.8,722-59.4,1135.6c-15.3,72.8-23,136-19.2,139.8c3.8,3.8,57.5-17.2,118.7-47.9c346.6-174.3,909.6-367.7,1068.6-367.7c76.6,0,145.5,78.5,145.5,166.6c0,130.2-256.6,614.7-503.6,953.7c-208.8,285.3-239.4,316-321.7,316c-55.5,0-90-13.4-122.6-47.9c-78.5-76.6-63.2-136,76.6-321.7c126.4-168.5,287.3-407.9,383-574.5l51.7-90l-139.8,49.8c-226,80.4-503.7,208.7-744.9,342.8c-231.7,128.3-304.5,147.5-377.3,95.7c-65.1-46-68.9-118.7-17.2-316c63.2-241.3,139.8-658.8,155.1-861.7l13.4-162.8l-99.6,95.8c-132.1,128.3-354.3,392.6-547.7,653c-86.2,116.8-172.4,218.3-189.6,226c-61.3,23-109.2,11.5-162.8-42.1c-40.2-42.1-57.4-84.3-76.6-195.3c-53.6-321.7-248.9-1015-287.2-1015c-36.4,0-214.5,614.7-277.7,967.1c-44,241.3-99.6,314.1-222.1,287.2c-44-9.6-95.8-67-245.1-264.3c-180-241.3-453.9-561.1-566.8-664.5l-53.6-47.9l13.4,162.8c17.2,203,93.8,622.4,157,861.7c51.7,197.2,47.9,270-17.2,316c-72.8,51.7-145.5,32.6-377.3-95.7c-239.4-134.1-519-262.4-743-342.8l-141.7-49.8l63.2,109.2c84.3,149.4,227.9,363.8,375.3,559.2c136,181.9,149.4,243.2,72.8,317.9c-32.6,34.5-67,47.9-122.6,47.9C2846.1-2063.1,2832.7-2070.8,2735-2191.4z"/><path fill="currentColor" d="M1385-2850.2c-461.5-90-802.4-367.7-1018.8-831.1c-74.7-158.9-264.3-836.9-266.2-944.1c0-55.5,97.7-157,151.3-157c63.2,0,130.2,38.3,153.2,90c11.5,24.9,61.3,203,109.2,394.5c111.1,450,204.9,649.2,386.8,834.9c70.9,72.8,174.3,153.2,229.8,181.9c137.9,68.9,365.8,126.4,509.4,126.4c65.1,0,137.9,11.5,164.7,24.9c103.4,51.7,120.6,180,38.3,262.4c-32.6,32.6-63.2,38.3-204.9,36.4C1543.9-2832.9,1430.9-2840.6,1385-2850.2z"/><path fill="currentColor" d="M8166-2859.7c-23-21.1-47.9-67-53.6-105.3c-9.6-53.7-1.9-78.5,34.5-122.6c44-49.8,61.3-55.5,237.5-68.9c333.2-26.8,522.8-107.2,718.1-302.6c185.8-185.7,275.8-381.1,394.5-857.9c55.5-224.1,105.3-386.8,126.4-409.8c78.5-82.4,201.1-61.3,262.4,46c26.8,47.9,23,74.7-72.8,448.1c-65.1,250.8-130.2,457.7-178.1,557.2c-247.1,530.5-656.9,813.9-1214.1,840.7C8234.9-2825.3,8204.3-2829.1,8166-2859.7z"/></g></g>
</svg>
