<?xml version="1.0" encoding="utf-8"?>
<!DOCTYPE svg PUBLIC "-//W3C//DTD SVG 1.1//EN" "http://www.w3.org/Graphics/SVG/1.1/DTD/svg11.dtd">
<svg aria-hidden="true" focusable="false" data-prefix="fab" data-icon="mysql" class="svg-inline--fa fa-jira fa-w-16" role="img" version="1.1" xmlns="http://www.w3.org/2000/svg" xmlns:xlink="http://www.w3.org/1999/xlink" x="0px" y="0px" viewBox="0 0 1000 1000" enable-background="new 0 0 1000 1000" xml:space="preserve">
<g><path fill="currentColor" d="M912.7,763c-53.3-1.3-94.6,4-129.3,18.7c-10,4-26,4-27.3,16.7c5.3,5.3,6,14,10.7,21.3c8,13.3,22,31.3,34.7,40.7c14,10.7,28,21.3,42.7,30.7c26,16,55.3,25.3,80.7,41.3c14.7,9.3,29.3,21.3,44,31.3c7.3,5.3,12,14,21.3,17.3c0-0.7,0-1.3,0-2c-4.7-6-6-14.7-10.7-21.3c-6.7-6.7-13.3-12.7-20-19.3C940,912.3,916,889.7,890,871c-21.3-14.7-68-34.7-76.7-59.3c0,0-0.7-0.7-1.3-1.3c14.7-1.3,32-6.7,46-10.7c22.7-6,43.3-4.7,66.7-10.7c10.7-2.7,21.3-6,32-9.3c0-2,0-4,0-6c-12-12-20.7-28-33.3-39.3c-34-29.3-71.3-58-110-82c-20.7-13.3-47.3-22-69.3-33.3c-8-4-21.3-6-26-12.7c-12-14.7-18.7-34-27.3-51.3c-19.3-36.7-38-77.3-54.7-116c-12-26-19.3-52-34-76c-68.7-113.3-143.3-182-257.9-249.3c-24.7-14-54-20-85.3-27.3c-16.7-0.7-33.3-2-50-2.7c-10.7-4.7-21.3-17.3-30.7-23.3c-38-24-136-76-164-7.3c-18,43.3,26.7,86,42,108c11.3,15.3,26,32.7,34,50c4.7,11.3,6,23.3,10.7,35.3c10.7,29.3,20.7,62,34.7,89.3c7.3,14,15.3,28.7,24.7,41.3c5.3,7.3,14.7,10.7,16.7,22.7c-9.3,13.3-10,33.3-15.3,50c-24,75.3-14.7,168.6,19.3,224c10.7,16.7,36,53.3,70,39.3c30-12,23.3-50,32-83.3c2-8,0.7-13.3,4.7-18.7c0,0.7,0,1.3,0,1.3c9.3,18.7,18.7,36.7,27.3,55.3c20.7,32.7,56.7,66.7,86.6,89.3c16,12,28.7,32.7,48.7,40c0-0.7,0-1.3,0-2c-0.7,0-0.7,0-1.3,0c-4-6-10-8.7-15.3-13.3c-12-12-25.3-26.7-34.7-40c-28-37.3-52.7-78.6-74.7-121.3c-10.7-20.7-20-43.3-28.7-64c-4-8-4-20-10.7-24c-10,14.7-24.7,27.3-32,45.3c-12.7,28.7-14,64-18.7,100.6c-2.7,0.7-1.3,0-2.7,1.3c-21.3-5.3-28.7-27.3-36.7-46c-20-47.3-23.3-123.3-6-178c4.7-14,24.7-58,16.7-71.3c-4-12.7-17.3-20-24.7-30c-8.7-12.7-18-28.7-24-42.7c-16-37.3-24-78.6-41.3-116c-8-17.3-22-35.3-33.3-51.3c-12.7-18-26.7-30.7-36.7-52c-3.3-7.3-8-19.3-2.7-27.3c1.3-5.3,4-7.3,9.3-8.7c8.7-7.3,33.3,2,42,6c24.7,10,45.3,19.3,66,33.3c9.3,6.7,19.3,19.3,31.3,22.7c4.7,0,9.3,0,14,0c21.3,4.7,45.3,1.3,65.3,7.3c35.3,11.3,67.3,28,96,46c87.3,55.3,159.3,134,208,228c8,15.3,11.3,29.3,18.7,45.3c14,32.7,31.3,66,45.3,98c14,31.3,27.3,63.3,47.3,89.3c10,14,50,21.3,68,28.7c13.3,6,34,11.3,46,18.7c22.7,14,45.3,30,66.7,45.3C877.4,733,910.7,749.7,912.7,763L912.7,763z"/></g>
</svg>
